# Blender 3.6.5
# www.blender.org
mtllib kağıtlık.mtl
o Cube.004
v -1.450644 0.199376 0.979510
v -1.450644 0.199376 -0.979510
v 1.825884 0.199376 0.979510
v 1.825884 0.199376 -0.979510
v -1.326113 0.223739 0.875991
v -1.326113 0.223739 -0.875991
v 1.701353 0.223739 -0.875991
v 1.701353 0.223739 0.875991
v -1.450644 0.379009 0.979510
v -1.450644 0.379009 -0.979510
v 1.825884 0.379009 -0.979510
v 1.825884 0.379009 0.979510
v -1.450644 0.546678 0.979510
v -1.450644 0.546678 -0.979510
v 1.825884 0.546678 -0.979510
v 1.825884 0.546678 0.979510
v -1.450644 0.199376 0.442230
v 1.825884 0.199376 0.442230
v -1.326113 0.223739 0.395493
v 1.701353 0.223739 0.395493
v 1.825884 0.379009 0.442230
v -1.450644 0.379009 0.442230
v 1.825884 0.546678 0.442230
v -1.450644 0.546678 0.442230
v 1.825884 0.199376 -0.477263
v -1.326113 0.223739 -0.426823
v -1.450644 0.379009 -0.477263
v -1.450644 0.546678 -0.477263
v -1.450644 0.199376 -0.477263
v 1.701353 0.223739 -0.426823
v 1.825884 0.379009 -0.477263
v 1.825884 0.546678 -0.477263
v -1.326113 0.579740 0.875991
v -1.379966 0.586924 0.920757
v -1.330213 0.582489 0.879398
v -1.341887 0.584820 0.889103
v -1.359358 0.586378 0.903626
v -1.326113 0.579740 -0.875991
v -1.379966 0.586924 -0.920757
v -1.330213 0.582489 -0.879398
v -1.341887 0.584820 -0.889103
v -1.359358 0.586378 -0.903626
v 1.701353 0.579740 0.875991
v 1.755207 0.586924 0.920757
v 1.705453 0.582489 0.879398
v 1.717127 0.584820 0.889102
v 1.734598 0.586378 0.903626
v 1.701353 0.579740 -0.875991
v 1.755207 0.586924 -0.920757
v 1.705453 0.582489 -0.879398
v 1.717127 0.584820 -0.889102
v 1.734598 0.586378 -0.903626
v -1.396791 0.586924 0.934743
v -1.450644 0.579740 0.979510
v -1.417400 0.586378 0.951875
v -1.434871 0.584820 0.966398
v -1.446545 0.582489 0.976102
v -1.396791 0.586924 -0.934743
v -1.450644 0.579740 -0.979510
v -1.417400 0.586378 -0.951875
v -1.434871 0.584820 -0.966398
v -1.446545 0.582489 -0.976102
v 1.772031 0.586924 -0.934743
v 1.825884 0.579740 -0.979510
v 1.792640 0.586378 -0.951875
v 1.810111 0.584820 -0.966398
v 1.821785 0.582489 -0.976102
v 1.772031 0.586924 0.934743
v 1.825884 0.579740 0.979510
v 1.792640 0.586378 0.951875
v 1.810111 0.584820 0.966398
v 1.821785 0.582489 0.976102
v -1.396281 0.586924 0.421827
v -1.450644 0.579740 0.442230
v -1.417085 0.586378 0.429635
v -1.434721 0.584820 0.436254
v -1.446506 0.582489 0.440677
v 1.825884 0.579740 0.442230
v 1.771521 0.586924 0.421827
v 1.821746 0.582489 0.440677
v 1.809962 0.584820 0.436254
v 1.792325 0.586378 0.429635
v -1.340523 0.579945 0.395493
v -1.380477 0.586924 0.415896
v -1.339147 0.582616 0.397046
v -1.346257 0.584880 0.401469
v -1.360770 0.586393 0.408088
v 1.755717 0.586924 0.415896
v 1.715763 0.579945 0.395493
v 1.736010 0.586393 0.408088
v 1.721497 0.584880 0.401469
v 1.714387 0.582616 0.397046
v -1.450644 0.579740 -0.477263
v -1.396281 0.586924 -0.455244
v -1.446506 0.582489 -0.475587
v -1.434721 0.584820 -0.470814
v -1.417085 0.586378 -0.463670
v -1.380477 0.586924 -0.448843
v -1.340811 0.579953 -0.426823
v -1.360792 0.586394 -0.440416
v -1.346341 0.584883 -0.433273
v -1.339324 0.582621 -0.428499
v 1.825884 0.579740 -0.477263
v 1.771521 0.586924 -0.455244
v 1.821746 0.582489 -0.475587
v 1.809962 0.584820 -0.470814
v 1.792325 0.586378 -0.463670
v 1.755717 0.586924 -0.448843
v 1.716051 0.579953 -0.426823
v 1.736032 0.586394 -0.440416
v 1.721581 0.584883 -0.433273
v 1.714564 0.582621 -0.428499
vn -0.0000 -0.0000 -1.0000
vn 1.0000 -0.0000 -0.0000
vn -0.0000 1.0000 -0.0000
vn -1.0000 -0.0000 -0.0000
vn -0.0000 -1.0000 -0.0000
vn 0.9997 0.0206 0.0163
vn -0.0000 -0.0000 1.0000
vn 0.9997 0.0202 -0.0150
vn -0.9997 0.0202 -0.0150
vn 0.4003 -0.0112 0.9163
vn -0.3747 -0.0103 -0.9271
vn -0.9997 0.0206 0.0164
vn 0.2896 -0.9572 -0.0001
vn -0.4003 -0.0112 0.9163
vn -0.2896 -0.9572 -0.0001
vn 0.7801 0.6257 -0.0000
vn -0.7801 0.6257 -0.0000
vn 0.3747 -0.0103 -0.9271
vn -0.0264 0.9997 -0.0000
vn -0.0884 0.9961 -0.0000
vn -0.1949 0.9808 -0.0000
vn -0.5552 0.8317 -0.0000
vn -0.0000 0.9995 -0.0319
vn -0.0000 0.9943 -0.1066
vn -0.0000 0.9723 -0.2335
vn -0.0000 0.7783 -0.6279
vn 0.0264 0.9997 -0.0000
vn 0.0884 0.9961 -0.0000
vn 0.1949 0.9808 -0.0000
vn 0.5552 0.8317 -0.0000
vn -0.0000 0.9995 0.0319
vn -0.0000 0.9943 0.1066
vn -0.0000 0.9723 0.2335
vn -0.0000 0.7783 0.6279
vn 0.8917 0.4521 0.0234
vn 0.2362 0.9717 0.0033
vn 0.0953 0.9954 0.0005
vn 0.0267 0.9996 -0.0000
vn -0.8854 0.4643 -0.0213
vn -0.2355 0.9719 -0.0030
vn -0.0952 0.9955 -0.0005
vn -0.0267 0.9996 -0.0000
vn 0.0263 0.9997 -0.0000
vn 0.0880 0.9961 -0.0000
vn 0.1940 0.9810 -0.0000
vn 0.5534 0.8329 -0.0000
vn 0.8854 0.4643 -0.0213
vn 0.2355 0.9719 -0.0030
vn 0.0952 0.9955 -0.0005
vn -0.8813 -0.4725 -0.0003
vn -0.3051 0.9523 -0.0000
vn -0.1038 0.9946 -0.0000
vn -0.0269 0.9996 -0.0000
vn -0.0263 0.9997 -0.0000
vn -0.0880 0.9961 -0.0000
vn -0.1940 0.9810 -0.0000
vn -0.5534 0.8329 -0.0000
vn 0.8813 -0.4725 -0.0003
vn 0.3051 0.9523 -0.0000
vn 0.1038 0.9946 -0.0000
vn 0.0269 0.9996 -0.0000
vn -0.8917 0.4521 0.0234
vn -0.2362 0.9717 0.0033
vn -0.0953 0.9954 0.0005
vt 0.070801 0.127427
vt 0.070801 0.075332
vt 0.924564 0.075332
vt 0.924564 0.127427
vt 0.046714 0.169288
vt 0.046714 0.099053
vt 0.277950 0.099054
vt 0.277950 0.169288
vt 0.865306 0.677058
vt 0.865306 0.568818
vt 0.867489 0.567754
vt 0.867489 0.678044
vt 0.667002 0.185584
vt 0.667002 0.109470
vt 0.887280 0.109471
vt 0.887280 0.185584
vt 0.125000 0.681435
vt 0.375000 0.681435
vt 0.375000 0.750000
vt 0.125000 0.750000
vt 0.851711 0.000182
vt 0.852122 0.249622
vt 0.179770 0.249574
vt 0.179770 0.000182
vt 0.446811 0.165960
vt 0.446811 0.834040
vt 0.000149 0.834040
vt 0.000149 0.165960
vt 0.865235 0.509765
vt 0.867560 0.507440
vt 0.867489 0.567754
vt 0.634765 0.509765
vt 0.634695 0.568818
vt 0.632511 0.567754
vt 0.632440 0.507440
vt 0.179566 0.999878
vt 0.000122 0.999291
vt 0.000122 0.000122
vt 0.179537 0.000122
vt 0.642205 0.673667
vt 0.857795 0.673667
vt 0.857795 0.732795
vt 0.642205 0.732795
vt 0.686245 0.664331
vt 0.566963 0.664721
vt 0.566982 0.000149
vt 0.686245 0.000149
vt 0.028085 0.185584
vt 0.028085 0.109470
vt 0.263727 0.109471
vt 0.263727 0.185584
vt 0.865235 0.740235
vt 0.867560 0.742560
vt 0.079524 0.809944
vt 0.079524 0.456701
vt 0.899967 0.456701
vt 0.899967 0.809944
vt 0.701286 0.907081
vt 0.701286 0.525477
vt 0.948651 0.525477
vt 0.948651 0.907081
vt 0.070801 0.674668
vt 0.070801 0.391622
vt 0.924564 0.391622
vt 0.924564 0.674668
vt 0.667003 0.985139
vt 0.667002 0.571591
vt 0.887280 0.571590
vt 0.887280 0.985139
vt 0.079524 0.126985
vt 0.899967 0.126985
vt 0.701286 0.169288
vt 0.948651 0.169288
vt 0.028085 0.571590
vt 0.263728 0.571591
vt 0.028085 0.985139
vt 0.263728 0.985139
vt 0.277950 0.907081
vt 0.277950 0.525477
vt 0.490878 0.564094
vt 0.599038 0.564094
vt 0.638667 0.571799
vt 0.642205 0.572477
vt 0.634694 0.677058
vt 0.634765 0.740235
vt 0.632440 0.742560
vt 0.632511 0.678044
vt 0.857795 0.572477
vt 0.490878 0.068565
vt 0.599038 0.068565
vt 0.836272 0.623440
vt 0.000082 0.999918
vt 0.000082 0.000082
vt 0.668549 0.000082
vt 0.668549 0.999918
vt 0.125000 0.564094
vt 0.375000 0.564094
vt 0.634694 0.568818
vt 0.632511 0.678044
vt 0.079524 0.061970
vt 0.899967 0.061970
vt 0.701286 0.099053
vt 0.948651 0.099054
vt 0.125000 0.500000
vt 0.375000 0.500000
vt 0.447084 0.000149
vt 0.000149 0.000181
vt 0.642205 0.517205
vt 0.857795 0.517205
vt 0.634765 0.509765
vt 0.046714 0.907081
vt 0.046714 0.525477
vt 0.814662 0.507948
vt 0.814684 0.572928
vt 0.599038 0.185906
vt 0.836815 0.541205
vt 0.490878 0.185906
vt 0.263727 0.109470
vt 0.667002 0.109471
vt 0.277950 0.099053
vt 0.701286 0.099054
vt 0.635014 0.673984
vt 0.635010 0.572135
vt 0.599038 0.681435
vt 0.198604 0.687729
vt 0.179770 0.249985
vt 0.523104 0.249985
vt 0.505652 0.687729
vt 0.686543 0.017399
vt 0.882230 0.000149
vt 0.882230 0.339518
vt 0.686543 0.320902
vt 0.490878 0.681435
vt 0.638578 0.674312
vt 0.870407 0.504593
vt 0.870363 0.566353
vt 0.875000 0.501673
vt 0.875000 0.564094
vt 0.625000 0.185906
vt 0.625000 0.248327
vt 0.622139 0.249565
vt 0.622139 0.185692
vt 0.620365 0.250000
vt 0.620365 0.185906
vt 0.629593 0.504593
vt 0.870407 0.504593
vt 0.626203 0.500000
vt 0.873797 0.500000
vt 0.625000 0.251203
vt 0.625000 0.498796
vt 0.622139 0.499687
vt 0.622139 0.250313
vt 0.620365 0.500000
vt 0.620365 0.250000
vt 0.629593 0.745407
vt 0.629637 0.679342
vt 0.625000 0.748327
vt 0.625000 0.681054
vt 0.622139 0.749565
vt 0.622139 0.681237
vt 0.620365 0.750000
vt 0.620365 0.681435
vt 0.870407 0.745407
vt 0.873797 0.750000
vt 0.626203 0.750000
vt 0.625000 0.751204
vt 0.625000 0.998796
vt 0.622139 0.999687
vt 0.622139 0.750313
vt 0.620365 1.000000
vt 0.620365 0.750000
vt 0.857940 0.516996
vt 0.843973 0.551705
vt 0.857795 0.572081
vt 0.862388 0.512612
vt 0.862586 0.570200
vt 0.642059 0.516996
vt 0.637612 0.512612
vt 0.642205 0.673667
vt 0.642059 0.733004
vt 0.639901 0.673962
vt 0.642205 0.674035
vt 0.637612 0.737388
vt 0.637417 0.675777
vt 0.642205 0.732795
vt 0.857940 0.733004
vt 0.862388 0.737388
vt 0.634765 0.740235
vt 0.870363 0.679342
vt 0.875000 0.681435
vt 0.875000 0.748327
vt 0.625000 0.001673
vt 0.625000 0.068565
vt 0.622139 0.068763
vt 0.622139 0.000435
vt 0.620365 0.068565
vt 0.620365 0.000000
vt 0.629637 0.566353
vt 0.625000 0.564506
vt 0.622139 0.564308
vt 0.620365 0.681435
vt 0.620365 0.564094
vt 0.843980 0.641476
vt 0.857795 0.674035
vt 0.862583 0.675777
vt 0.639900 0.572160
vt 0.642205 0.572081
vt 0.637414 0.570200
vt 0.870363 0.679342
vt 0.875000 0.564917
vt 0.875000 0.680672
vt 0.625000 0.069327
vt 0.625000 0.185083
vt 0.622139 0.185692
vt 0.622139 0.068763
vt 0.620365 0.185906
vt 0.620365 0.068565
vt 0.625000 0.501673
vt 0.622139 0.500435
vt 0.620365 0.564094
vt 0.620365 0.500000
vt 0.642205 0.572478
s 0
usemtl Material.006
f 14/1/1 59/2/1 64/3/1 15/4/1
f 15/5/2 64/6/2 103/7/2 32/8/2
f 84/9/3 98/10/3 94/11/3 73/12/3
f 28/13/4 93/14/4 59/15/4 14/16/4
f 17/17/5 18/18/5 3/19/5 1/20/5
f 38/21/6 99/22/6 26/23/6 6/24/6
f 48/25/7 38/26/7 6/27/7 7/28/7
f 98/10/3 39/29/3 58/30/3 94/31/3
f 49/32/3 108/33/3 104/34/3 63/35/3
f 83/36/8 33/37/8 5/38/8 19/39/8
f 20/40/3 19/41/3 5/42/3 8/43/3
f 43/44/9 89/45/9 20/46/9 8/47/9
f 13/48/4 54/49/4 74/50/4 24/51/4
f 34/52/3 84/9/3 73/12/3 53/53/3
f 3/54/7 12/55/7 9/56/7 1/57/7
f 18/58/2 21/59/2 12/60/2 3/61/2
f 2/62/1 10/63/1 11/64/1 4/65/1
f 29/66/4 27/67/4 10/68/4 2/69/4
f 12/55/7 16/70/7 13/71/7 9/56/7
f 21/59/2 23/72/2 16/73/2 12/60/2
f 10/63/1 14/1/1 15/4/1 11/64/1
f 27/67/4 28/13/4 14/16/4 10/68/4
f 9/74/4 13/48/4 24/51/4 22/75/4
f 1/76/4 9/74/4 22/75/4 17/77/4
f 25/78/2 31/79/2 21/59/2 18/58/2
f 31/80/10 32/81/10 109/82/10 30/83/10
f 88/84/3 44/85/3 68/86/3 79/87/3
f 30/83/3 26/88/3 19/41/3 20/40/3
f 22/89/11 24/90/11 83/91/11 19/41/11
f 33/92/1 43/93/1 8/94/1 5/95/1
f 29/96/5 25/97/5 18/18/5 17/17/5
f 108/98/3 88/84/3 79/99/3 104/34/3
f 16/70/7 69/100/7 54/101/7 13/71/7
f 23/72/2 78/102/2 69/103/2 16/73/2
f 2/104/5 4/105/5 25/97/5 29/96/5
f 109/106/12 48/25/12 7/28/12 30/107/12
f 7/108/3 6/109/3 26/88/3 30/83/3
f 39/29/3 49/110/3 63/35/3 58/30/3
f 4/111/2 11/112/2 31/79/2 25/78/2
f 11/112/2 15/5/2 32/8/2 31/79/2
f 99/113/13 83/114/13 24/90/13 28/115/13
f 17/77/4 22/75/4 27/67/4 29/66/4
f 26/88/14 99/116/14 28/115/14 27/117/14
f 24/51/4 74/118/4 93/119/4 28/13/4
f 32/8/2 103/120/2 78/121/2 23/72/2
f 89/122/15 109/123/15 32/81/15 23/124/15
f 26/125/16 27/126/16 22/127/16 19/128/16
f 20/129/17 21/130/17 31/131/17 30/132/17
f 21/133/18 20/40/18 89/134/18 23/124/18
f 94/31/19 58/30/19 60/135/19 97/136/19
f 97/136/20 60/135/20 61/137/20 96/138/20
f 96/139/21 61/140/21 62/141/21 95/142/21
f 95/142/22 62/141/22 59/143/22 93/144/22
f 58/30/23 63/35/23 65/145/23 60/146/23
f 60/146/24 65/145/24 66/147/24 61/148/24
f 61/149/25 66/150/25 67/151/25 62/152/25
f 62/152/26 67/151/26 64/153/26 59/154/26
f 79/87/27 68/86/27 70/155/27 82/156/27
f 82/156/28 70/155/28 71/157/28 81/158/28
f 81/158/29 71/157/29 72/159/29 80/160/29
f 80/160/30 72/159/30 69/161/30 78/162/30
f 68/86/31 53/53/31 55/163/31 70/155/31
f 70/155/32 55/163/32 56/164/32 71/165/32
f 71/166/33 56/167/33 57/168/33 72/169/33
f 72/169/34 57/168/34 54/170/34 69/171/34
f 99/88/35 38/109/35 40/172/35 102/173/35
f 102/173/36 40/172/36 41/109/36 101/174/36
f 101/174/37 41/109/37 42/175/37 100/176/37
f 100/176/38 42/175/38 39/29/38 98/10/38
f 38/109/34 48/108/34 50/177/34 40/172/34
f 40/172/33 50/177/33 51/108/33 41/109/33
f 41/109/32 51/108/32 52/178/32 42/175/32
f 42/175/31 52/178/31 49/110/31 39/29/31
f 89/179/39 43/43/39 45/180/39 92/181/39
f 92/181/40 45/180/40 46/43/40 91/182/40
f 91/182/41 46/43/41 47/183/41 90/184/41
f 90/184/42 47/183/42 44/85/42 88/84/42
f 43/185/26 33/42/26 35/186/26 45/180/26
f 45/180/25 35/186/25 36/42/25 46/43/25
f 46/43/24 36/42/24 37/187/24 47/183/24
f 47/183/23 37/187/23 34/52/23 44/188/23
f 53/53/19 73/12/19 75/189/19 55/163/19
f 55/163/20 75/189/20 76/190/20 56/191/20
f 56/192/21 76/193/21 77/194/21 57/195/21
f 57/195/22 77/194/22 74/196/22 54/197/22
f 104/34/43 79/99/43 82/156/43 107/198/43
f 107/198/44 82/156/44 81/158/44 106/199/44
f 106/199/45 81/158/45 80/160/45 105/200/45
f 105/200/46 80/160/46 78/201/46 103/202/46
f 33/42/47 83/41/47 85/203/47 35/186/47
f 35/186/48 85/203/48 86/204/48 36/42/48
f 36/42/49 86/204/49 87/205/49 37/187/49
f 37/187/38 87/205/38 84/9/38 34/52/38
f 109/123/50 89/122/50 92/181/50 112/206/50
f 112/206/51 92/181/51 91/182/51 111/207/51
f 111/207/52 91/182/52 90/184/52 110/208/52
f 110/208/53 90/184/53 88/84/53 108/98/53
f 73/12/54 94/11/54 97/136/54 75/209/54
f 75/209/55 97/136/55 96/210/55 76/211/55
f 76/212/56 96/213/56 95/214/56 77/215/56
f 77/215/57 95/214/57 93/216/57 74/217/57
f 83/114/58 99/113/58 102/173/58 85/203/58
f 85/203/59 102/173/59 101/174/59 86/204/59
f 86/204/60 101/174/60 100/176/60 87/205/60
f 87/205/61 100/176/61 98/10/61 84/9/61
f 63/35/27 104/34/27 107/198/27 65/145/27
f 65/145/28 107/198/28 106/199/28 66/218/28
f 66/218/29 106/199/29 105/200/29 67/219/29
f 67/219/30 105/200/30 103/220/30 64/221/30
f 48/108/62 109/222/62 112/206/62 50/177/62
f 50/177/63 112/206/63 111/207/63 51/108/63
f 51/108/64 111/207/64 110/208/64 52/178/64
f 52/178/42 110/208/42 108/33/42 49/32/42
f 44/188/3 34/52/3 53/53/3 68/86/3
l 89 21
l 109 31
